# xmcd
#
# Track frame offsets: 
#        150
#        19680
#        35424
#        55358
#        74355
#        94871
#        112623
#        127166
#        145660
#        172044
#        189396
#        228438
#        252358
#        253121
#
# Disc length: 3573 seconds
#
# Revision: 0
# Processed by: cddbd v1.5.2PL0 Copyright (c) Steve Scherf et al.
# Submitted via: ExactAudioCopy v0.99pb1
#
DISCID=c20df30e
DTITLE=Patricia Vonne - MusicStar 2007 April 27 set 2
DYEAR=1900
DGENRE=
TTITLE0=Alacran y Pistolero
TTITLE1=(Strike It Rich In Love)
TTITLE2=Battle Scars
TTITLE3=Devotion
TTITLE4=La Cigarra
TTITLE5=Amarillo Highway
TTITLE6=Guitarras and Castanuelas
TTITLE7=Karolina
TTITLE8=Blood On The Tracks
TTITLE9=Severina
TTITLE10=Sax Maniac
TTITLE11=Morning After
TTITLE12=Three Houts Of Sleep First Take
TTITLE13=Three Houts Of Sleep Second Take
EXTD=
EXTT0=
EXTT1=
EXTT2=
EXTT3=
EXTT4=
EXTT5=
EXTT6=
EXTT7=
EXTT8=
EXTT9=
EXTT10=
EXTT11=
EXTT12=
EXTT13=
PLAYORDER=
